<?xml version="1.0" standalone="no"?><!DOCTYPE svg PUBLIC "-//W3C//DTD SVG 1.1//EN" "http://www.w3.org/Graphics/SVG/1.1/DTD/svg11.dtd"><svg class="icon" width="32px" height="32.00px" viewBox="0 0 1024 1024" version="1.1" xmlns="http://www.w3.org/2000/svg"><path fill="#1296db" d="M872.682946 7.015813H151.120612A143.964482 143.964482 0 0 0 7.015813 151.120612v721.562334a144.217052 144.217052 0 0 0 144.217052 144.301241h721.450081a148.959741 148.959741 0 0 0 31.655348-3.45178c0.589328 0 1.178657-0.308696 1.683795-0.392886q5.61265-1.318973 10.664036-2.946641l1.178656-0.392885c1.375099-0.392886 2.666009-0.898024 3.956919-1.3751l0.898024-0.308696 3.844665-1.487352c1.094467-0.392886 2.16087-0.898024 3.255337-1.375099l1.964428-0.898024a19.644276 19.644276 0 0 0 2.076681-0.982214c0.982214-0.505139 1.964428-0.898024 2.946641-1.3751 2.946641-1.487352 5.61265-2.946641 8.587355-4.630436a145.367645 145.367645 0 0 0 37.492505-31.458906l0.196443-0.196442c1.375099-1.683795 2.806325-3.255337 4.041108-4.939133l0.392885-0.505138a142.000055 142.000055 0 0 0 19.419771-34.321357l0.308696-0.701582a141.410727 141.410727 0 0 0 9.569569-43.301597v-1.880238c0-1.178657 0-2.469566 0.196442-3.760476s0-2.469566 0-3.760476V151.120612A144.525747 144.525747 0 0 0 872.682946 7.015813zM151.120612 945.001946a72.150621 72.150621 0 0 1-72.010305-72.290937V512.154348h144.217052v72.010304a144.132862 144.132862 0 0 0 144.329305 144.076736h288.602483a143.964482 143.964482 0 0 0 144.104798-144.301242v-72.094494h144.525748v360.753104a71.589356 71.589356 0 0 1-14.200006 42.908712 79.250623 79.250623 0 0 1-7.015813 8.082217l-1.290909 1.290909c-0.785771 0.785771-1.683795 1.571542-2.469566 2.273124-1.683795 1.375099-3.36759 2.806325-5.135576 4.041108l-2.07668 1.487352a27.44586 27.44586 0 0 1-2.160871 1.3751q-2.357313 1.487352-4.742689 2.666008c-0.505139 0.308696-0.982214 0.505139-1.571542 0.785772s-1.880238 0.898024-2.806325 1.290909l-3.648223 1.487352c-0.392886 0.196443-0.898024 0.308696-1.29091 0.505139a19.475897 19.475897 0 0 1-2.553756 0.785771l-3.760475 1.094467a68.025323 68.025323 0 0 1-4.630437 0.982214c-0.982214 0.196443-1.964428 0.392886-2.946642 0.505138a83.067226 83.067226 0 0 1-9.850201 0.785771H151.176738z m649.439776-505.138535a71.982241 71.982241 0 0 0-72.319 71.982241v72.206747a72.150621 72.150621 0 0 1-72.094494 72.206748h-288.49023a72.23481 72.23481 0 0 1-72.206748-72.206748v-72.206747a71.898051 71.898051 0 0 0-72.094494-71.898051h-144.245115V151.120612a72.066431 72.066431 0 0 1 72.122558-72.094495h721.562334a72.150621 72.150621 0 0 1 72.290937 72.010305v288.826989h-144.497685z m0 0l-144.301241-108.296089h-108.408343V223.327359a36.061279 36.061279 0 0 0-72.094494 0v108.296089h-108.099646a36.061279 36.061279 0 0 0 0 72.094494h108.211899v108.2119a36.061279 36.061279 0 0 0 72.094494 0v-108.183836h108.29609a36.061279 36.061279 0 0 0 0-72.094495z m0 0" /></svg>